G75*
%MOIN*%
%OFA0B0*%
%FSLAX24Y24*%
%IPPOS*%
%LPD*%
%AMOC8*
5,1,8,0,0,1.08239X$1,22.5*
%
%ADD10C,0.0480*%
%ADD11OC8,0.0480*%
%ADD12C,0.0560*%
%ADD13C,0.0480*%
%ADD14OC8,0.0560*%
%ADD15OC8,0.0514*%
%ADD16C,0.2300*%
%ADD17C,0.0240*%
%ADD18C,0.0120*%
D10*
X010510Y003600D02*
X010990Y003600D01*
X010990Y004600D02*
X010510Y004600D01*
X010510Y005600D02*
X010990Y005600D01*
X010990Y006600D02*
X010510Y006600D01*
X010510Y007600D02*
X010990Y007600D01*
X010990Y008600D02*
X010510Y008600D01*
X010510Y009600D02*
X010990Y009600D01*
X010990Y010600D02*
X010510Y010600D01*
X010510Y011600D02*
X010990Y011600D01*
X010990Y012600D02*
X010510Y012600D01*
X010510Y013600D02*
X010990Y013600D01*
X010990Y014600D02*
X010510Y014600D01*
X010510Y015600D02*
X010990Y015600D01*
X010990Y016600D02*
X010510Y016600D01*
X010510Y017600D02*
X010990Y017600D01*
X010990Y018600D02*
X010510Y018600D01*
X010510Y019600D02*
X010990Y019600D01*
X010990Y020600D02*
X010510Y020600D01*
X010510Y021600D02*
X010990Y021600D01*
X010990Y022600D02*
X010510Y022600D01*
X016510Y022600D02*
X016990Y022600D01*
X016990Y021600D02*
X016510Y021600D01*
X016510Y020600D02*
X016990Y020600D01*
X016990Y019600D02*
X016510Y019600D01*
X016510Y018600D02*
X016990Y018600D01*
X016990Y017600D02*
X016510Y017600D01*
X016510Y016600D02*
X016990Y016600D01*
X016990Y015600D02*
X016510Y015600D01*
X016510Y014600D02*
X016990Y014600D01*
X016990Y013600D02*
X016510Y013600D01*
X016510Y012600D02*
X016990Y012600D01*
X016990Y011600D02*
X016510Y011600D01*
X016510Y010600D02*
X016990Y010600D01*
X016990Y009600D02*
X016510Y009600D01*
X016510Y008600D02*
X016990Y008600D01*
X016990Y007600D02*
X016510Y007600D01*
X016510Y006600D02*
X016990Y006600D01*
X016990Y005600D02*
X016510Y005600D01*
X016510Y004600D02*
X016990Y004600D01*
X016990Y003600D02*
X016510Y003600D01*
X019260Y003600D02*
X019740Y003600D01*
X019740Y004600D02*
X019260Y004600D01*
X019260Y005600D02*
X019740Y005600D01*
X019740Y006600D02*
X019260Y006600D01*
X019260Y007600D02*
X019740Y007600D01*
X019740Y008600D02*
X019260Y008600D01*
X019260Y009600D02*
X019740Y009600D01*
X019740Y010600D02*
X019260Y010600D01*
X019260Y011600D02*
X019740Y011600D01*
X019740Y012600D02*
X019260Y012600D01*
X019260Y013600D02*
X019740Y013600D01*
X019740Y014600D02*
X019260Y014600D01*
X019260Y015600D02*
X019740Y015600D01*
X019740Y016600D02*
X019260Y016600D01*
X019260Y017600D02*
X019740Y017600D01*
X019740Y018600D02*
X019260Y018600D01*
X019260Y019600D02*
X019740Y019600D01*
X019740Y020600D02*
X019260Y020600D01*
X019260Y021600D02*
X019740Y021600D01*
X019740Y022600D02*
X019260Y022600D01*
X025260Y022600D02*
X025740Y022600D01*
X025740Y021600D02*
X025260Y021600D01*
X025260Y020600D02*
X025740Y020600D01*
X025740Y019600D02*
X025260Y019600D01*
X025260Y018600D02*
X025740Y018600D01*
X025740Y017600D02*
X025260Y017600D01*
X025260Y016600D02*
X025740Y016600D01*
X025740Y015600D02*
X025260Y015600D01*
X025260Y014600D02*
X025740Y014600D01*
X025740Y013600D02*
X025260Y013600D01*
X025260Y012600D02*
X025740Y012600D01*
X025740Y011600D02*
X025260Y011600D01*
X025260Y010600D02*
X025740Y010600D01*
X025740Y009600D02*
X025260Y009600D01*
X025260Y008600D02*
X025740Y008600D01*
X025740Y007600D02*
X025260Y007600D01*
X025260Y006600D02*
X025740Y006600D01*
X025740Y005600D02*
X025260Y005600D01*
X025260Y004600D02*
X025740Y004600D01*
X025740Y003600D02*
X025260Y003600D01*
D11*
X018500Y007600D03*
X018500Y008600D03*
X014500Y009100D03*
X013250Y011100D03*
X012250Y011100D03*
X012250Y012100D03*
X013250Y012100D03*
X012500Y013100D03*
X013500Y013600D03*
X014500Y013100D03*
X014500Y014100D03*
X013500Y014600D03*
X012500Y014100D03*
X013500Y016100D03*
X013500Y020100D03*
X002500Y019350D03*
X001250Y019350D03*
X001250Y020350D03*
X002500Y015350D03*
X001250Y007100D03*
X001250Y006100D03*
X014500Y005100D03*
D12*
X006780Y009600D02*
X006220Y009600D01*
X006220Y010600D02*
X006780Y010600D01*
X006780Y011600D02*
X006220Y011600D01*
X006220Y012600D02*
X006780Y012600D01*
X007000Y014585D02*
X006440Y014585D01*
X006440Y016365D02*
X007000Y016365D01*
X009000Y016365D02*
X009560Y016365D01*
X009560Y014585D02*
X009000Y014585D01*
X005500Y022320D02*
X005500Y022880D01*
X004500Y022880D02*
X004500Y022320D01*
D13*
X009250Y012550D03*
X009250Y010650D03*
D14*
X007750Y006350D03*
X006750Y006350D03*
X006750Y005350D03*
X007750Y005350D03*
X007750Y004350D03*
X006750Y004350D03*
X006750Y003350D03*
X007750Y003350D03*
X007750Y002350D03*
X006750Y002350D03*
X017750Y009600D03*
X017750Y010600D03*
X029000Y010350D03*
X030000Y010350D03*
X030000Y011350D03*
X029000Y011350D03*
X029000Y012350D03*
X030000Y012350D03*
X030000Y013350D03*
X029000Y013350D03*
X029000Y014350D03*
X030000Y014350D03*
X030000Y018350D03*
X029000Y018350D03*
X029000Y019350D03*
X030000Y019350D03*
X030000Y020350D03*
X029000Y020350D03*
X029000Y021350D03*
X030000Y021350D03*
X030000Y022350D03*
X029000Y022350D03*
X009500Y022600D03*
X008500Y022600D03*
X008500Y021600D03*
X009500Y021600D03*
X009500Y020600D03*
X008500Y020600D03*
X008500Y019600D03*
X009500Y019600D03*
X009500Y018600D03*
X008500Y018600D03*
X005500Y018100D03*
X004500Y018100D03*
X004500Y017100D03*
X005500Y017100D03*
X005500Y019100D03*
X004500Y019100D03*
X029000Y006350D03*
X030000Y006350D03*
X030000Y005350D03*
X029000Y005350D03*
X029000Y004350D03*
X030000Y004350D03*
X030000Y003350D03*
X029000Y003350D03*
X029000Y002350D03*
X030000Y002350D03*
D15*
X004831Y010011D03*
X003846Y010011D03*
X003846Y010838D03*
X003846Y011862D03*
X003846Y012689D03*
X004831Y012689D03*
D16*
X002219Y002069D03*
X002219Y022541D03*
X033321Y022541D03*
X033321Y002069D03*
D17*
X017500Y012850D02*
X017500Y014600D01*
X016750Y014600D01*
X016000Y014600D01*
X015500Y014100D01*
X014500Y014100D01*
X014500Y019850D01*
X014250Y020100D01*
X013500Y020100D01*
X005500Y020100D01*
X005500Y019100D01*
X005500Y020100D02*
X005500Y020350D01*
X001250Y020350D01*
X001250Y019350D02*
X002500Y019350D01*
X005500Y020350D02*
X005500Y022600D01*
X011750Y014100D02*
X012500Y014100D01*
X014500Y014100D01*
X013500Y013600D02*
X013500Y013100D01*
X014500Y013100D01*
X015500Y013100D01*
X016000Y013600D01*
X016750Y013600D01*
X017500Y012850D02*
X017250Y012600D01*
X016750Y012600D01*
X017500Y014600D02*
X017500Y017850D01*
X017750Y018100D01*
X022000Y018100D01*
X023000Y017100D01*
X026250Y017100D01*
X026500Y017350D01*
X026500Y018350D01*
X026250Y018600D01*
X025500Y018600D01*
X013500Y013100D02*
X012500Y013100D01*
X011750Y013100D01*
X011250Y012600D01*
X010750Y012600D01*
X010750Y013600D02*
X006500Y013600D01*
X006500Y012600D01*
X006500Y013600D02*
X004000Y013600D01*
X003846Y013446D01*
X003846Y012689D01*
X003846Y010011D02*
X003846Y009254D01*
X004000Y009100D01*
X005250Y009100D01*
X005750Y009600D01*
X006500Y009600D01*
X010750Y013600D02*
X011250Y013600D01*
X011750Y014100D01*
D18*
X010750Y014600D02*
X006735Y014600D01*
X004750Y014600D01*
X004500Y014850D01*
X004500Y017100D01*
X005250Y017600D02*
X006500Y017600D01*
X007000Y017100D01*
X009750Y017100D01*
X010000Y016850D01*
X010000Y015850D01*
X010250Y015600D01*
X010750Y015600D01*
X010750Y014600D02*
X009295Y014600D01*
X009280Y014585D01*
X010750Y014600D02*
X013500Y014600D01*
X013500Y016100D01*
X015500Y016850D02*
X015750Y016600D01*
X016750Y016600D01*
X015500Y016850D02*
X015500Y022850D01*
X015750Y023100D01*
X017500Y023100D01*
X019000Y021600D01*
X019500Y021600D01*
X019500Y022600D02*
X019500Y022850D01*
X019750Y023100D01*
X030250Y023100D01*
X030500Y022850D01*
X030500Y021600D01*
X030250Y021350D01*
X030000Y021350D01*
X029500Y021100D02*
X029500Y022100D01*
X029750Y022350D01*
X030000Y022350D01*
X029000Y022350D02*
X026250Y022350D01*
X026000Y022100D01*
X024750Y022100D01*
X024500Y021850D01*
X024500Y017850D01*
X024750Y017600D01*
X025500Y017600D01*
X025500Y015600D02*
X026000Y015600D01*
X027250Y014350D01*
X029000Y014350D01*
X029250Y013850D02*
X029750Y014350D01*
X030000Y014350D01*
X029250Y013850D02*
X026750Y013850D01*
X026000Y014600D01*
X025500Y014600D01*
X024500Y014350D02*
X024500Y007350D01*
X024750Y007100D01*
X026250Y007100D01*
X027250Y008100D01*
X027250Y009600D01*
X027500Y009850D01*
X029250Y009850D01*
X029750Y010350D01*
X030000Y010350D01*
X029250Y010850D02*
X027000Y010850D01*
X026750Y010600D01*
X026750Y008850D01*
X026500Y008600D01*
X025500Y008600D01*
X025000Y008100D02*
X024750Y008350D01*
X024750Y015350D01*
X024500Y015600D01*
X019500Y015600D01*
X019000Y016100D02*
X018750Y015850D01*
X018750Y014350D01*
X019000Y014100D01*
X024000Y014100D01*
X024250Y013850D01*
X024250Y003350D01*
X024500Y003100D01*
X027000Y003100D01*
X027250Y003350D01*
X027250Y006600D01*
X027500Y006850D01*
X027750Y006850D01*
X028000Y006850D01*
X030250Y006850D01*
X030500Y006600D01*
X030500Y005100D01*
X030250Y004850D01*
X029750Y004850D01*
X029250Y004350D01*
X029000Y004350D01*
X029250Y004850D02*
X028500Y004850D01*
X028250Y004600D01*
X028250Y002350D01*
X028000Y002100D01*
X021500Y002100D01*
X021250Y002350D01*
X021250Y010350D01*
X021000Y010600D01*
X019500Y010600D01*
X019000Y010100D02*
X018500Y010350D01*
X018500Y016350D01*
X018750Y016600D01*
X019500Y016600D01*
X020000Y016100D02*
X019000Y016100D01*
X020000Y016100D02*
X020250Y016350D01*
X020250Y017350D01*
X020000Y017600D01*
X019500Y017600D01*
X019500Y018600D02*
X019000Y018600D01*
X018500Y019100D01*
X016250Y019100D01*
X016000Y019350D01*
X016000Y022350D01*
X016250Y022600D01*
X016750Y022600D01*
X016750Y019600D02*
X019500Y019600D01*
X025500Y019600D02*
X026250Y019600D01*
X026500Y019850D01*
X026500Y020600D01*
X026750Y020850D01*
X029250Y020850D01*
X029500Y021100D01*
X029000Y021350D02*
X026250Y021350D01*
X026000Y021600D01*
X025500Y021600D01*
X028500Y020100D02*
X028750Y020350D01*
X029000Y020350D01*
X028500Y020100D02*
X028500Y018100D01*
X028750Y017850D01*
X030250Y017850D01*
X030500Y017600D01*
X030500Y007350D01*
X030250Y007100D01*
X027250Y007100D01*
X027000Y006850D01*
X027000Y003850D01*
X026750Y003600D01*
X025500Y003600D01*
X027250Y002850D02*
X027500Y003100D01*
X027500Y006100D01*
X027750Y006350D01*
X029000Y006350D01*
X029250Y005850D02*
X029750Y006350D01*
X030000Y006350D01*
X029250Y005850D02*
X028000Y005850D01*
X027750Y005600D01*
X027750Y002850D01*
X027500Y002600D01*
X022000Y002600D01*
X021750Y002850D01*
X021750Y012350D01*
X021500Y012600D01*
X019500Y012600D01*
X019500Y011600D02*
X021250Y011600D01*
X021500Y011350D01*
X021500Y002600D01*
X021750Y002350D01*
X027750Y002350D01*
X028000Y002600D01*
X028000Y005100D01*
X028250Y005350D01*
X029000Y005350D01*
X029250Y004850D02*
X029750Y005350D01*
X030000Y005350D01*
X030000Y004350D02*
X029750Y004350D01*
X029250Y003850D01*
X028750Y003850D01*
X028500Y003600D01*
X028500Y002100D01*
X028250Y001850D01*
X021250Y001850D01*
X021000Y002100D01*
X021000Y009850D01*
X020750Y010100D01*
X019000Y010100D01*
X017750Y009600D02*
X016750Y009600D01*
X016750Y008600D02*
X012000Y008600D01*
X011750Y008350D01*
X011750Y005350D01*
X011500Y005100D01*
X010250Y005100D01*
X009000Y006350D01*
X007750Y006350D01*
X006750Y006350D02*
X006000Y006350D01*
X005750Y006100D01*
X005750Y001600D01*
X006000Y001350D01*
X012500Y001350D01*
X012750Y001600D01*
X012750Y006100D01*
X013000Y006350D01*
X015750Y006350D01*
X016000Y006100D01*
X016000Y004850D01*
X016250Y004600D01*
X016750Y004600D01*
X016750Y003600D02*
X018250Y003600D01*
X018500Y003850D01*
X018500Y005350D01*
X018750Y005600D01*
X019500Y005600D01*
X020500Y006350D02*
X020500Y001600D01*
X020750Y001350D01*
X030750Y001350D01*
X031000Y001600D01*
X031000Y019600D01*
X030750Y019850D01*
X029750Y019850D01*
X029250Y019350D01*
X029000Y019350D01*
X030000Y019350D02*
X030500Y019350D01*
X030750Y019100D01*
X030750Y001850D01*
X030500Y001600D01*
X021000Y001600D01*
X020750Y001850D01*
X020750Y008350D01*
X020500Y008600D01*
X019500Y008600D01*
X017500Y007850D02*
X017250Y008100D01*
X012250Y008100D01*
X012000Y007850D01*
X012000Y004350D01*
X011750Y004100D01*
X010250Y004100D01*
X009500Y004850D01*
X007500Y004850D01*
X007000Y005350D01*
X006750Y005350D01*
X006750Y004350D02*
X006250Y004350D01*
X006000Y004100D01*
X006000Y001850D01*
X006250Y001600D01*
X012250Y001600D01*
X012500Y001850D01*
X012500Y006350D01*
X012750Y006600D01*
X016750Y006600D01*
X017500Y005850D02*
X017500Y007850D01*
X016750Y007600D02*
X012500Y007600D01*
X012250Y007350D01*
X012250Y002100D01*
X012000Y001850D01*
X006500Y001850D01*
X006250Y002100D01*
X006250Y003100D01*
X006500Y003350D01*
X006750Y003350D01*
X005500Y001350D02*
X005500Y005850D01*
X005250Y006100D01*
X001250Y006100D01*
X000510Y008100D02*
X002285Y008100D01*
X002273Y008105D01*
X002078Y008300D01*
X001972Y008555D01*
X001972Y008830D01*
X002078Y009085D01*
X002273Y009280D01*
X002527Y009386D01*
X002803Y009386D01*
X003058Y009280D01*
X003250Y009088D01*
X003250Y013612D01*
X003058Y013420D01*
X002803Y013314D01*
X002527Y013314D01*
X002273Y013420D01*
X002078Y013615D01*
X001972Y013870D01*
X001972Y014145D01*
X002078Y014400D01*
X002273Y014595D01*
X002285Y014600D01*
X000510Y014600D01*
X000510Y008100D01*
X000510Y008158D02*
X002220Y008158D01*
X002101Y008277D02*
X000510Y008277D01*
X000510Y008395D02*
X002038Y008395D01*
X001989Y008514D02*
X000510Y008514D01*
X000510Y008632D02*
X001972Y008632D01*
X001972Y008751D02*
X000510Y008751D01*
X000510Y008869D02*
X001988Y008869D01*
X002037Y008988D02*
X000510Y008988D01*
X000510Y009106D02*
X002099Y009106D01*
X002217Y009225D02*
X000510Y009225D01*
X000510Y009343D02*
X002425Y009343D01*
X002906Y009343D02*
X003250Y009343D01*
X003250Y009225D02*
X003114Y009225D01*
X003232Y009106D02*
X003250Y009106D01*
X003250Y009462D02*
X000510Y009462D01*
X000510Y009580D02*
X003250Y009580D01*
X003250Y009699D02*
X000510Y009699D01*
X000510Y009817D02*
X003250Y009817D01*
X003250Y009936D02*
X000510Y009936D01*
X000510Y010054D02*
X003250Y010054D01*
X003250Y010173D02*
X000510Y010173D01*
X000510Y010291D02*
X003250Y010291D01*
X003250Y010410D02*
X000510Y010410D01*
X000510Y010528D02*
X003250Y010528D01*
X003250Y010647D02*
X000510Y010647D01*
X000510Y010765D02*
X001955Y010765D01*
X001958Y010762D02*
X002213Y010657D01*
X002488Y010657D01*
X002743Y010762D01*
X002938Y010957D01*
X003043Y011212D01*
X003043Y011488D01*
X002938Y011743D01*
X002743Y011938D01*
X002488Y012043D01*
X002213Y012043D01*
X001958Y011938D01*
X001763Y011743D01*
X001657Y011488D01*
X001657Y011212D01*
X001763Y010957D01*
X001958Y010762D01*
X001837Y010884D02*
X000510Y010884D01*
X000510Y011002D02*
X001744Y011002D01*
X001695Y011121D02*
X000510Y011121D01*
X000510Y011239D02*
X001657Y011239D01*
X001657Y011358D02*
X000510Y011358D01*
X000510Y011476D02*
X001657Y011476D01*
X001702Y011595D02*
X000510Y011595D01*
X000510Y011713D02*
X001751Y011713D01*
X001852Y011832D02*
X000510Y011832D01*
X000510Y011950D02*
X001988Y011950D01*
X002713Y011950D02*
X003250Y011950D01*
X003250Y011832D02*
X002849Y011832D01*
X002950Y011713D02*
X003250Y011713D01*
X003250Y011595D02*
X002999Y011595D01*
X003043Y011476D02*
X003250Y011476D01*
X003250Y011358D02*
X003043Y011358D01*
X003043Y011239D02*
X003250Y011239D01*
X003250Y011121D02*
X003006Y011121D01*
X002956Y011002D02*
X003250Y011002D01*
X003250Y010884D02*
X002864Y010884D01*
X002746Y010765D02*
X003250Y010765D01*
X003846Y010838D02*
X005238Y010838D01*
X005500Y011100D01*
X007500Y011100D01*
X009500Y009100D01*
X011250Y009100D01*
X011500Y008850D01*
X011500Y005850D01*
X011250Y005600D01*
X010750Y005600D01*
X010750Y007600D02*
X009750Y007600D01*
X007250Y010100D01*
X005250Y010100D01*
X005161Y010011D01*
X004831Y010011D01*
X006500Y010600D02*
X007250Y010600D01*
X009250Y008600D01*
X010750Y008600D01*
X010750Y009600D02*
X009500Y009600D01*
X007500Y011600D01*
X006500Y011600D01*
X009250Y011850D02*
X009500Y011600D01*
X010750Y011600D01*
X011250Y011600D01*
X011750Y012100D01*
X012250Y012100D01*
X012250Y011100D02*
X011750Y011100D01*
X011250Y010600D01*
X010750Y010600D01*
X010250Y010600D01*
X010200Y010650D01*
X009250Y010650D01*
X009250Y011850D02*
X009250Y012550D01*
X006735Y014600D02*
X006720Y014585D01*
X003250Y014600D02*
X003250Y014403D01*
X003058Y014595D01*
X003046Y014600D01*
X003250Y014600D01*
X003250Y014557D02*
X003096Y014557D01*
X003214Y014439D02*
X003250Y014439D01*
X003247Y013609D02*
X003250Y013609D01*
X003250Y013491D02*
X003129Y013491D01*
X003250Y013372D02*
X002942Y013372D01*
X003250Y013254D02*
X000510Y013254D01*
X000510Y013372D02*
X002388Y013372D01*
X002202Y013491D02*
X000510Y013491D01*
X000510Y013609D02*
X002084Y013609D01*
X002031Y013728D02*
X000510Y013728D01*
X000510Y013846D02*
X001982Y013846D01*
X001972Y013965D02*
X000510Y013965D01*
X000510Y014083D02*
X001972Y014083D01*
X001996Y014202D02*
X000510Y014202D01*
X000510Y014320D02*
X002045Y014320D01*
X002116Y014439D02*
X000510Y014439D01*
X000510Y014557D02*
X002235Y014557D01*
X003250Y013135D02*
X000510Y013135D01*
X000510Y013017D02*
X003250Y013017D01*
X003250Y012898D02*
X000510Y012898D01*
X000510Y012780D02*
X003250Y012780D01*
X003250Y012661D02*
X000510Y012661D01*
X000510Y012543D02*
X003250Y012543D01*
X003250Y012424D02*
X000510Y012424D01*
X000510Y012306D02*
X003250Y012306D01*
X003250Y012187D02*
X000510Y012187D01*
X000510Y012069D02*
X003250Y012069D01*
X003250Y008297D02*
X003250Y008100D01*
X003046Y008100D01*
X003058Y008105D01*
X003250Y008297D01*
X003250Y008277D02*
X003230Y008277D01*
X003250Y008158D02*
X003111Y008158D01*
X005500Y001350D02*
X005750Y001100D01*
X014250Y001100D01*
X014500Y001350D01*
X014500Y005100D01*
X016750Y005600D02*
X017250Y005600D01*
X017500Y005850D01*
X019500Y006600D02*
X020250Y006600D01*
X020500Y006350D01*
X020000Y004600D02*
X019500Y004600D01*
X020000Y004600D02*
X020250Y004350D01*
X020250Y001350D01*
X020500Y001100D01*
X031000Y001100D01*
X031250Y001350D01*
X031250Y020100D01*
X031000Y020350D01*
X030000Y020350D01*
X024250Y014600D02*
X024500Y014350D01*
X024250Y014600D02*
X019500Y014600D01*
X019500Y013600D02*
X021750Y013600D01*
X022000Y013350D01*
X022000Y003100D01*
X022250Y002850D01*
X027250Y002850D01*
X026750Y008100D02*
X025000Y008100D01*
X026750Y008100D02*
X027000Y008350D01*
X027000Y010100D01*
X027250Y010350D01*
X028000Y010350D01*
X028250Y010350D01*
X029000Y010350D01*
X029250Y010850D02*
X029750Y011350D01*
X030000Y011350D01*
X029250Y011850D02*
X029750Y012350D01*
X030000Y012350D01*
X029250Y011850D02*
X026750Y011850D01*
X026250Y011350D01*
X026250Y010850D01*
X026000Y010600D01*
X025500Y010600D01*
X026500Y011100D02*
X026750Y011350D01*
X029000Y011350D01*
X029000Y012350D02*
X026750Y012350D01*
X026000Y011600D01*
X025500Y011600D01*
X026500Y011100D02*
X026500Y009850D01*
X026250Y009600D01*
X025500Y009600D01*
X025500Y012600D02*
X026000Y012600D01*
X026250Y012850D01*
X029250Y012850D01*
X029750Y013350D01*
X030000Y013350D01*
X029000Y013350D02*
X026250Y013350D01*
X026000Y013600D01*
X025500Y013600D01*
X017750Y010600D02*
X016750Y010600D01*
X016750Y011600D02*
X014750Y011600D01*
X014500Y011350D01*
X014500Y009100D01*
X011250Y016600D02*
X010750Y016600D01*
X011250Y016600D02*
X011500Y016850D01*
X011500Y017850D01*
X011250Y018100D01*
X007000Y018100D01*
X006500Y018600D01*
X005250Y018600D01*
X004750Y019100D01*
X004500Y019100D01*
X004500Y018100D02*
X004750Y018100D01*
X005250Y017600D01*
X005500Y018100D02*
X006500Y018100D01*
X007000Y017600D01*
X010750Y017600D01*
X010750Y018600D02*
X009500Y018600D01*
X009500Y019600D02*
X010750Y019600D01*
X010750Y020600D02*
X009500Y020600D01*
X009500Y021600D02*
X010750Y021600D01*
X010750Y022600D02*
X009500Y022600D01*
M02*
