%
M48
M72
T01C0.0320
T02C0.0354
T03C0.0400
T04C0.0866
T05C0.1181
%
T01
X1250Y6100
X1250Y7100
X9250Y10650
X10750Y10600
X10750Y9600
X10750Y8600
X10750Y7600
X10750Y6600
X10750Y5600
X10750Y4600
X10750Y3600
X14500Y5100
X16750Y4600
X16750Y3600
X16750Y5600
X16750Y6600
X16750Y7600
X16750Y8600
X16750Y9600
X16750Y10600
X16750Y11600
X16750Y12600
X16750Y13600
X16750Y14600
X16750Y15600
X16750Y16600
X16750Y17600
X16750Y18600
X16750Y19600
X16750Y20600
X16750Y21600
X16750Y22600
X19500Y22600
X19500Y21600
X19500Y20600
X19500Y19600
X19500Y18600
X19500Y17600
X19500Y16600
X19500Y15600
X19500Y14600
X19500Y13600
X19500Y12600
X19500Y11600
X19500Y10600
X19500Y9600
X19500Y8600
X18500Y8600
X18500Y7600
X19500Y7600
X19500Y6600
X19500Y5600
X19500Y4600
X19500Y3600
X25500Y3600
X25500Y4600
X25500Y5600
X25500Y6600
X25500Y7600
X25500Y8600
X25500Y9600
X25500Y10600
X25500Y11600
X25500Y12600
X25500Y13600
X25500Y14600
X25500Y15600
X25500Y16600
X25500Y17600
X25500Y18600
X25500Y19600
X25500Y20600
X25500Y21600
X25500Y22600
X13500Y20100
X10750Y19600
X10750Y18600
X10750Y17600
X10750Y16600
X10750Y15600
X10750Y14600
X10750Y13600
X10750Y12600
X10750Y11600
X12250Y11100
X13250Y11100
X13250Y12100
X12250Y12100
X12500Y13100
X13500Y13600
X14500Y13100
X14500Y14100
X13500Y14600
X12500Y14100
X13500Y16100
X9250Y12550
X14500Y9100
X2500Y15350
X2500Y19350
X1250Y19350
X1250Y20350
X10750Y20600
X10750Y21600
X10750Y22600
T02
X4831Y12689
X3846Y12689
X3846Y11862
X3846Y10838
X3846Y10011
X4831Y10011
T03
X6500Y9600
X6500Y10600
X6500Y11600
X6500Y12600
X6720Y14585
X6720Y16365
X5500Y17100
X4500Y17100
X4500Y18100
X5500Y18100
X5500Y19100
X4500Y19100
X8500Y18600
X9500Y18600
X9500Y19600
X8500Y19600
X8500Y20600
X9500Y20600
X9500Y21600
X8500Y21600
X8500Y22600
X9500Y22600
X5500Y22600
X4500Y22600
X9280Y16365
X9280Y14585
X17750Y10600
X17750Y9600
X7750Y6350
X6750Y6350
X6750Y5350
X7750Y5350
X7750Y4350
X6750Y4350
X6750Y3350
X7750Y3350
X7750Y2350
X6750Y2350
X29000Y2350
X30000Y2350
X30000Y3350
X29000Y3350
X29000Y4350
X30000Y4350
X30000Y5350
X29000Y5350
X29000Y6350
X30000Y6350
X30000Y10350
X29000Y10350
X29000Y11350
X30000Y11350
X30000Y12350
X29000Y12350
X29000Y13350
X30000Y13350
X30000Y14350
X29000Y14350
X29000Y18350
X30000Y18350
X30000Y19350
X29000Y19350
X29000Y20350
X30000Y20350
X30000Y21350
X29000Y21350
X29000Y22350
X30000Y22350
T04
X2665Y14007
X2350Y11350
X2665Y8693
T05
X2219Y2069
X2219Y22541
X33321Y22541
X33321Y2069
M30
