G75*
%MOIN*%
%OFA0B0*%
%FSLAX24Y24*%
%IPPOS*%
%LPD*%
%AMOC8*
5,1,8,0,0,1.08239X$1,22.5*
%
%ADD10C,0.0000*%
%ADD11C,0.0480*%
%ADD12OC8,0.0480*%
%ADD13C,0.0560*%
%ADD14C,0.0480*%
%ADD15OC8,0.0560*%
%ADD16OC8,0.0514*%
%ADD17C,0.2300*%
%ADD18C,0.0240*%
%ADD19C,0.0120*%
D10*
X000250Y000100D02*
X000250Y024470D01*
X035242Y024470D01*
X035242Y000100D01*
X000250Y000100D01*
X002232Y008693D02*
X002234Y008734D01*
X002240Y008775D01*
X002250Y008815D01*
X002263Y008854D01*
X002280Y008891D01*
X002301Y008927D01*
X002325Y008961D01*
X002352Y008992D01*
X002381Y009020D01*
X002414Y009046D01*
X002448Y009068D01*
X002485Y009087D01*
X002523Y009102D01*
X002563Y009114D01*
X002603Y009122D01*
X002644Y009126D01*
X002686Y009126D01*
X002727Y009122D01*
X002767Y009114D01*
X002807Y009102D01*
X002845Y009087D01*
X002881Y009068D01*
X002916Y009046D01*
X002949Y009020D01*
X002978Y008992D01*
X003005Y008961D01*
X003029Y008927D01*
X003050Y008891D01*
X003067Y008854D01*
X003080Y008815D01*
X003090Y008775D01*
X003096Y008734D01*
X003098Y008693D01*
X003096Y008652D01*
X003090Y008611D01*
X003080Y008571D01*
X003067Y008532D01*
X003050Y008495D01*
X003029Y008459D01*
X003005Y008425D01*
X002978Y008394D01*
X002949Y008366D01*
X002916Y008340D01*
X002882Y008318D01*
X002845Y008299D01*
X002807Y008284D01*
X002767Y008272D01*
X002727Y008264D01*
X002686Y008260D01*
X002644Y008260D01*
X002603Y008264D01*
X002563Y008272D01*
X002523Y008284D01*
X002485Y008299D01*
X002449Y008318D01*
X002414Y008340D01*
X002381Y008366D01*
X002352Y008394D01*
X002325Y008425D01*
X002301Y008459D01*
X002280Y008495D01*
X002263Y008532D01*
X002250Y008571D01*
X002240Y008611D01*
X002234Y008652D01*
X002232Y008693D01*
X001917Y011350D02*
X001919Y011391D01*
X001925Y011432D01*
X001935Y011472D01*
X001948Y011511D01*
X001965Y011548D01*
X001986Y011584D01*
X002010Y011618D01*
X002037Y011649D01*
X002066Y011677D01*
X002099Y011703D01*
X002133Y011725D01*
X002170Y011744D01*
X002208Y011759D01*
X002248Y011771D01*
X002288Y011779D01*
X002329Y011783D01*
X002371Y011783D01*
X002412Y011779D01*
X002452Y011771D01*
X002492Y011759D01*
X002530Y011744D01*
X002566Y011725D01*
X002601Y011703D01*
X002634Y011677D01*
X002663Y011649D01*
X002690Y011618D01*
X002714Y011584D01*
X002735Y011548D01*
X002752Y011511D01*
X002765Y011472D01*
X002775Y011432D01*
X002781Y011391D01*
X002783Y011350D01*
X002781Y011309D01*
X002775Y011268D01*
X002765Y011228D01*
X002752Y011189D01*
X002735Y011152D01*
X002714Y011116D01*
X002690Y011082D01*
X002663Y011051D01*
X002634Y011023D01*
X002601Y010997D01*
X002567Y010975D01*
X002530Y010956D01*
X002492Y010941D01*
X002452Y010929D01*
X002412Y010921D01*
X002371Y010917D01*
X002329Y010917D01*
X002288Y010921D01*
X002248Y010929D01*
X002208Y010941D01*
X002170Y010956D01*
X002134Y010975D01*
X002099Y010997D01*
X002066Y011023D01*
X002037Y011051D01*
X002010Y011082D01*
X001986Y011116D01*
X001965Y011152D01*
X001948Y011189D01*
X001935Y011228D01*
X001925Y011268D01*
X001919Y011309D01*
X001917Y011350D01*
X002232Y014007D02*
X002234Y014048D01*
X002240Y014089D01*
X002250Y014129D01*
X002263Y014168D01*
X002280Y014205D01*
X002301Y014241D01*
X002325Y014275D01*
X002352Y014306D01*
X002381Y014334D01*
X002414Y014360D01*
X002448Y014382D01*
X002485Y014401D01*
X002523Y014416D01*
X002563Y014428D01*
X002603Y014436D01*
X002644Y014440D01*
X002686Y014440D01*
X002727Y014436D01*
X002767Y014428D01*
X002807Y014416D01*
X002845Y014401D01*
X002881Y014382D01*
X002916Y014360D01*
X002949Y014334D01*
X002978Y014306D01*
X003005Y014275D01*
X003029Y014241D01*
X003050Y014205D01*
X003067Y014168D01*
X003080Y014129D01*
X003090Y014089D01*
X003096Y014048D01*
X003098Y014007D01*
X003096Y013966D01*
X003090Y013925D01*
X003080Y013885D01*
X003067Y013846D01*
X003050Y013809D01*
X003029Y013773D01*
X003005Y013739D01*
X002978Y013708D01*
X002949Y013680D01*
X002916Y013654D01*
X002882Y013632D01*
X002845Y013613D01*
X002807Y013598D01*
X002767Y013586D01*
X002727Y013578D01*
X002686Y013574D01*
X002644Y013574D01*
X002603Y013578D01*
X002563Y013586D01*
X002523Y013598D01*
X002485Y013613D01*
X002449Y013632D01*
X002414Y013654D01*
X002381Y013680D01*
X002352Y013708D01*
X002325Y013739D01*
X002301Y013773D01*
X002280Y013809D01*
X002263Y013846D01*
X002250Y013885D01*
X002240Y013925D01*
X002234Y013966D01*
X002232Y014007D01*
D11*
X010510Y013600D02*
X010990Y013600D01*
X010990Y012600D02*
X010510Y012600D01*
X010510Y011600D02*
X010990Y011600D01*
X010990Y010600D02*
X010510Y010600D01*
X010510Y009600D02*
X010990Y009600D01*
X010990Y008600D02*
X010510Y008600D01*
X010510Y007600D02*
X010990Y007600D01*
X010990Y006600D02*
X010510Y006600D01*
X010510Y005600D02*
X010990Y005600D01*
X010990Y004600D02*
X010510Y004600D01*
X010510Y003600D02*
X010990Y003600D01*
X016510Y003600D02*
X016990Y003600D01*
X016990Y004600D02*
X016510Y004600D01*
X016510Y005600D02*
X016990Y005600D01*
X016990Y006600D02*
X016510Y006600D01*
X016510Y007600D02*
X016990Y007600D01*
X016990Y008600D02*
X016510Y008600D01*
X016510Y009600D02*
X016990Y009600D01*
X016990Y010600D02*
X016510Y010600D01*
X016510Y011600D02*
X016990Y011600D01*
X016990Y012600D02*
X016510Y012600D01*
X016510Y013600D02*
X016990Y013600D01*
X016990Y014600D02*
X016510Y014600D01*
X016510Y015600D02*
X016990Y015600D01*
X016990Y016600D02*
X016510Y016600D01*
X016510Y017600D02*
X016990Y017600D01*
X016990Y018600D02*
X016510Y018600D01*
X016510Y019600D02*
X016990Y019600D01*
X016990Y020600D02*
X016510Y020600D01*
X016510Y021600D02*
X016990Y021600D01*
X016990Y022600D02*
X016510Y022600D01*
X019260Y022600D02*
X019740Y022600D01*
X019740Y021600D02*
X019260Y021600D01*
X019260Y020600D02*
X019740Y020600D01*
X019740Y019600D02*
X019260Y019600D01*
X019260Y018600D02*
X019740Y018600D01*
X019740Y017600D02*
X019260Y017600D01*
X019260Y016600D02*
X019740Y016600D01*
X019740Y015600D02*
X019260Y015600D01*
X019260Y014600D02*
X019740Y014600D01*
X019740Y013600D02*
X019260Y013600D01*
X019260Y012600D02*
X019740Y012600D01*
X019740Y011600D02*
X019260Y011600D01*
X019260Y010600D02*
X019740Y010600D01*
X019740Y009600D02*
X019260Y009600D01*
X019260Y008600D02*
X019740Y008600D01*
X019740Y007600D02*
X019260Y007600D01*
X019260Y006600D02*
X019740Y006600D01*
X019740Y005600D02*
X019260Y005600D01*
X019260Y004600D02*
X019740Y004600D01*
X019740Y003600D02*
X019260Y003600D01*
X025260Y003600D02*
X025740Y003600D01*
X025740Y004600D02*
X025260Y004600D01*
X025260Y005600D02*
X025740Y005600D01*
X025740Y006600D02*
X025260Y006600D01*
X025260Y007600D02*
X025740Y007600D01*
X025740Y008600D02*
X025260Y008600D01*
X025260Y009600D02*
X025740Y009600D01*
X025740Y010600D02*
X025260Y010600D01*
X025260Y011600D02*
X025740Y011600D01*
X025740Y012600D02*
X025260Y012600D01*
X025260Y013600D02*
X025740Y013600D01*
X025740Y014600D02*
X025260Y014600D01*
X025260Y015600D02*
X025740Y015600D01*
X025740Y016600D02*
X025260Y016600D01*
X025260Y017600D02*
X025740Y017600D01*
X025740Y018600D02*
X025260Y018600D01*
X025260Y019600D02*
X025740Y019600D01*
X025740Y020600D02*
X025260Y020600D01*
X025260Y021600D02*
X025740Y021600D01*
X025740Y022600D02*
X025260Y022600D01*
X010990Y022600D02*
X010510Y022600D01*
X010510Y021600D02*
X010990Y021600D01*
X010990Y020600D02*
X010510Y020600D01*
X010510Y019600D02*
X010990Y019600D01*
X010990Y018600D02*
X010510Y018600D01*
X010510Y017600D02*
X010990Y017600D01*
X010990Y016600D02*
X010510Y016600D01*
X010510Y015600D02*
X010990Y015600D01*
X010990Y014600D02*
X010510Y014600D01*
D12*
X012500Y014100D03*
X013500Y013600D03*
X012500Y013100D03*
X012250Y012100D03*
X013250Y012100D03*
X013250Y011100D03*
X012250Y011100D03*
X014500Y009100D03*
X018500Y008600D03*
X018500Y007600D03*
X014500Y005100D03*
X014500Y013100D03*
X014500Y014100D03*
X013500Y014600D03*
X013500Y016100D03*
X013500Y020100D03*
X002500Y019350D03*
X001250Y019350D03*
X001250Y020350D03*
X002500Y015350D03*
X001250Y007100D03*
X001250Y006100D03*
D13*
X006220Y009600D02*
X006780Y009600D01*
X006780Y010600D02*
X006220Y010600D01*
X006220Y011600D02*
X006780Y011600D01*
X006780Y012600D02*
X006220Y012600D01*
X006440Y014585D02*
X007000Y014585D01*
X009000Y014585D02*
X009560Y014585D01*
X009560Y016365D02*
X009000Y016365D01*
X007000Y016365D02*
X006440Y016365D01*
X005500Y022320D02*
X005500Y022880D01*
X004500Y022880D02*
X004500Y022320D01*
D14*
X009250Y012550D03*
X009250Y010650D03*
D15*
X007750Y006350D03*
X006750Y006350D03*
X006750Y005350D03*
X007750Y005350D03*
X007750Y004350D03*
X006750Y004350D03*
X006750Y003350D03*
X007750Y003350D03*
X007750Y002350D03*
X006750Y002350D03*
X017750Y009600D03*
X017750Y010600D03*
X029000Y010350D03*
X030000Y010350D03*
X030000Y011350D03*
X029000Y011350D03*
X029000Y012350D03*
X030000Y012350D03*
X030000Y013350D03*
X029000Y013350D03*
X029000Y014350D03*
X030000Y014350D03*
X030000Y018350D03*
X029000Y018350D03*
X029000Y019350D03*
X030000Y019350D03*
X030000Y020350D03*
X029000Y020350D03*
X029000Y021350D03*
X030000Y021350D03*
X030000Y022350D03*
X029000Y022350D03*
X009500Y022600D03*
X008500Y022600D03*
X008500Y021600D03*
X009500Y021600D03*
X009500Y020600D03*
X008500Y020600D03*
X008500Y019600D03*
X009500Y019600D03*
X009500Y018600D03*
X008500Y018600D03*
X005500Y018100D03*
X004500Y018100D03*
X004500Y017100D03*
X005500Y017100D03*
X005500Y019100D03*
X004500Y019100D03*
X029000Y006350D03*
X030000Y006350D03*
X030000Y005350D03*
X029000Y005350D03*
X029000Y004350D03*
X030000Y004350D03*
X030000Y003350D03*
X029000Y003350D03*
X029000Y002350D03*
X030000Y002350D03*
D16*
X004831Y010011D03*
X003846Y010011D03*
X003846Y010838D03*
X003846Y011862D03*
X003846Y012689D03*
X004831Y012689D03*
D17*
X002219Y022541D03*
X002219Y002069D03*
X033321Y002069D03*
X033321Y022541D03*
D18*
X026500Y022350D02*
X026500Y018850D01*
X026250Y018600D01*
X025500Y018600D01*
X026500Y022350D02*
X026250Y022600D01*
X025500Y022600D01*
X015250Y015100D02*
X015000Y015350D01*
X012250Y015350D01*
X011500Y016100D01*
X010250Y016100D01*
X010000Y016350D01*
X009295Y016350D01*
X009280Y016365D01*
X008500Y016365D01*
X008500Y018600D01*
X008500Y019600D01*
X008500Y020600D01*
X008500Y021600D01*
X008500Y021850D01*
X008250Y021600D01*
X004750Y021600D01*
X004500Y021850D01*
X004500Y022600D01*
X008500Y022600D02*
X008500Y021850D01*
X005500Y017100D02*
X005500Y015990D01*
X002640Y015990D01*
X002500Y015850D01*
X002500Y015350D01*
X005500Y015990D02*
X005875Y015975D01*
X006265Y016365D01*
X006720Y016365D01*
X008500Y016365D01*
X006500Y012600D02*
X005750Y012600D01*
X005500Y012350D01*
X005500Y007350D01*
X005250Y007100D01*
X001250Y007100D01*
X006500Y009600D02*
X007250Y009600D01*
X007750Y009100D01*
X008750Y009100D01*
X008750Y004600D01*
X008500Y004350D01*
X007750Y004350D01*
X008750Y009100D02*
X013000Y009100D01*
X013250Y009350D01*
X013250Y011100D01*
X013250Y012100D01*
X015000Y012100D01*
X015250Y012350D01*
X015250Y013600D01*
X015250Y015100D01*
X015250Y013600D02*
X016750Y013600D01*
X018250Y013600D01*
X018750Y013100D01*
X020250Y013100D01*
X020500Y012850D01*
X020500Y007600D01*
X019500Y007600D01*
X018500Y007600D01*
X018500Y008600D02*
X018500Y012350D01*
X018250Y012600D01*
X016750Y012600D01*
X020500Y007600D02*
X020500Y003850D01*
X020250Y003600D01*
X019500Y003600D01*
D19*
X020750Y003100D02*
X021000Y003350D01*
X021000Y015850D01*
X020750Y016100D01*
X016250Y016100D01*
X016000Y016350D01*
X016000Y020850D01*
X016250Y021100D01*
X018500Y021100D01*
X019000Y020600D01*
X019500Y020600D01*
X019000Y020100D02*
X018500Y020600D01*
X016750Y020600D01*
X016750Y021600D02*
X018500Y021600D01*
X019000Y021100D01*
X023000Y021100D01*
X023250Y020850D01*
X023250Y004850D01*
X023500Y004600D01*
X025500Y004600D01*
X026500Y005350D02*
X026500Y003350D01*
X026250Y003100D01*
X023250Y003100D01*
X023000Y003350D01*
X023000Y019850D01*
X022750Y020100D01*
X019000Y020100D01*
X018500Y018600D02*
X016750Y018600D01*
X016750Y017600D02*
X018500Y017600D01*
X019000Y017100D01*
X022250Y017100D01*
X022500Y016850D01*
X022500Y002850D01*
X022750Y002600D01*
X026750Y002600D01*
X027000Y002850D01*
X027000Y007350D01*
X026750Y007600D01*
X025500Y007600D01*
X025500Y006600D02*
X026500Y006600D01*
X026750Y006350D01*
X026750Y003100D01*
X026500Y002850D01*
X023000Y002850D01*
X022750Y003100D01*
X022750Y017850D01*
X022500Y018100D01*
X019000Y018100D01*
X018500Y018600D01*
X015500Y018850D02*
X015250Y018600D01*
X010750Y018600D01*
X010750Y019600D02*
X015000Y019600D01*
X015250Y019850D01*
X015250Y023100D01*
X015500Y023350D01*
X030750Y023350D01*
X031000Y023100D01*
X031000Y003100D01*
X030750Y002850D01*
X029750Y002850D01*
X029250Y003350D01*
X029000Y003350D01*
X030000Y003350D02*
X030500Y003350D01*
X030750Y003600D01*
X030750Y022850D01*
X030500Y023100D01*
X015750Y023100D01*
X015500Y022850D01*
X015500Y018850D01*
X015750Y015850D02*
X015750Y021850D01*
X016000Y022100D01*
X023000Y022100D01*
X024500Y020600D01*
X025500Y020600D01*
X027500Y018350D02*
X029000Y018350D01*
X029250Y017850D02*
X029750Y018350D01*
X030000Y018350D01*
X029250Y017850D02*
X027750Y017850D01*
X027500Y017600D01*
X027500Y002350D01*
X027250Y002100D01*
X010000Y002100D01*
X009750Y002350D01*
X009750Y006350D01*
X010000Y006600D01*
X010750Y006600D01*
X009750Y007100D02*
X015500Y007100D01*
X015750Y007350D01*
X015750Y009350D01*
X016000Y009600D01*
X016750Y009600D01*
X016750Y010600D02*
X015750Y010600D01*
X015500Y010350D01*
X015500Y008350D01*
X015250Y008100D01*
X009500Y008100D01*
X009250Y007850D01*
X009250Y001850D01*
X009500Y001600D01*
X027750Y001600D01*
X028000Y001850D01*
X029250Y001850D01*
X029750Y002350D01*
X030000Y002350D01*
X029000Y002350D02*
X028000Y002350D01*
X027500Y001850D01*
X009750Y001850D01*
X009500Y002100D01*
X009500Y006850D01*
X009750Y007100D01*
X010250Y004600D02*
X010000Y004350D01*
X010000Y002600D01*
X010250Y002350D01*
X027000Y002350D01*
X027250Y002600D01*
X027250Y018100D01*
X027500Y018350D01*
X016750Y015600D02*
X016000Y015600D01*
X015750Y015850D01*
X025500Y005600D02*
X026250Y005600D01*
X026500Y005350D01*
X020750Y003100D02*
X011000Y003100D01*
X010750Y003350D01*
X010750Y003600D01*
X010750Y004600D02*
X010250Y004600D01*
M02*
