G75*
%MOIN*%
%OFA0B0*%
%FSLAX24Y24*%
%IPPOS*%
%LPD*%
%AMOC8*
5,1,8,0,0,1.08239X$1,22.5*
%
%ADD10C,0.0560*%
%ADD11OC8,0.0560*%
%ADD12C,0.0640*%
%ADD13C,0.0560*%
%ADD14OC8,0.0640*%
%ADD15OC8,0.0594*%
%ADD16C,0.0946*%
%ADD17C,0.2380*%
D10*
X010510Y003600D02*
X010990Y003600D01*
X010990Y004600D02*
X010510Y004600D01*
X010510Y005600D02*
X010990Y005600D01*
X010990Y006600D02*
X010510Y006600D01*
X010510Y007600D02*
X010990Y007600D01*
X010990Y008600D02*
X010510Y008600D01*
X010510Y009600D02*
X010990Y009600D01*
X010990Y010600D02*
X010510Y010600D01*
X010510Y011600D02*
X010990Y011600D01*
X010990Y012600D02*
X010510Y012600D01*
X010510Y013600D02*
X010990Y013600D01*
X010990Y014600D02*
X010510Y014600D01*
X010510Y015600D02*
X010990Y015600D01*
X010990Y016600D02*
X010510Y016600D01*
X010510Y017600D02*
X010990Y017600D01*
X010990Y018600D02*
X010510Y018600D01*
X010510Y019600D02*
X010990Y019600D01*
X010990Y020600D02*
X010510Y020600D01*
X010510Y021600D02*
X010990Y021600D01*
X010990Y022600D02*
X010510Y022600D01*
X016510Y022600D02*
X016990Y022600D01*
X016990Y021600D02*
X016510Y021600D01*
X016510Y020600D02*
X016990Y020600D01*
X016990Y019600D02*
X016510Y019600D01*
X016510Y018600D02*
X016990Y018600D01*
X016990Y017600D02*
X016510Y017600D01*
X016510Y016600D02*
X016990Y016600D01*
X016990Y015600D02*
X016510Y015600D01*
X016510Y014600D02*
X016990Y014600D01*
X016990Y013600D02*
X016510Y013600D01*
X016510Y012600D02*
X016990Y012600D01*
X016990Y011600D02*
X016510Y011600D01*
X016510Y010600D02*
X016990Y010600D01*
X016990Y009600D02*
X016510Y009600D01*
X016510Y008600D02*
X016990Y008600D01*
X016990Y007600D02*
X016510Y007600D01*
X016510Y006600D02*
X016990Y006600D01*
X016990Y005600D02*
X016510Y005600D01*
X016510Y004600D02*
X016990Y004600D01*
X016990Y003600D02*
X016510Y003600D01*
X019260Y003600D02*
X019740Y003600D01*
X019740Y004600D02*
X019260Y004600D01*
X019260Y005600D02*
X019740Y005600D01*
X019740Y006600D02*
X019260Y006600D01*
X019260Y007600D02*
X019740Y007600D01*
X019740Y008600D02*
X019260Y008600D01*
X019260Y009600D02*
X019740Y009600D01*
X019740Y010600D02*
X019260Y010600D01*
X019260Y011600D02*
X019740Y011600D01*
X019740Y012600D02*
X019260Y012600D01*
X019260Y013600D02*
X019740Y013600D01*
X019740Y014600D02*
X019260Y014600D01*
X019260Y015600D02*
X019740Y015600D01*
X019740Y016600D02*
X019260Y016600D01*
X019260Y017600D02*
X019740Y017600D01*
X019740Y018600D02*
X019260Y018600D01*
X019260Y019600D02*
X019740Y019600D01*
X019740Y020600D02*
X019260Y020600D01*
X019260Y021600D02*
X019740Y021600D01*
X019740Y022600D02*
X019260Y022600D01*
X025260Y022600D02*
X025740Y022600D01*
X025740Y021600D02*
X025260Y021600D01*
X025260Y020600D02*
X025740Y020600D01*
X025740Y019600D02*
X025260Y019600D01*
X025260Y018600D02*
X025740Y018600D01*
X025740Y017600D02*
X025260Y017600D01*
X025260Y016600D02*
X025740Y016600D01*
X025740Y015600D02*
X025260Y015600D01*
X025260Y014600D02*
X025740Y014600D01*
X025740Y013600D02*
X025260Y013600D01*
X025260Y012600D02*
X025740Y012600D01*
X025740Y011600D02*
X025260Y011600D01*
X025260Y010600D02*
X025740Y010600D01*
X025740Y009600D02*
X025260Y009600D01*
X025260Y008600D02*
X025740Y008600D01*
X025740Y007600D02*
X025260Y007600D01*
X025260Y006600D02*
X025740Y006600D01*
X025740Y005600D02*
X025260Y005600D01*
X025260Y004600D02*
X025740Y004600D01*
X025740Y003600D02*
X025260Y003600D01*
D11*
X018500Y007600D03*
X018500Y008600D03*
X014500Y009100D03*
X013250Y011100D03*
X012250Y011100D03*
X012250Y012100D03*
X013250Y012100D03*
X012500Y013100D03*
X013500Y013600D03*
X014500Y013100D03*
X014500Y014100D03*
X013500Y014600D03*
X012500Y014100D03*
X013500Y016100D03*
X013500Y020100D03*
X002500Y019350D03*
X001250Y019350D03*
X001250Y020350D03*
X002500Y015350D03*
X001250Y007100D03*
X001250Y006100D03*
X014500Y005100D03*
D12*
X006780Y009600D02*
X006220Y009600D01*
X006220Y010600D02*
X006780Y010600D01*
X006780Y011600D02*
X006220Y011600D01*
X006220Y012600D02*
X006780Y012600D01*
X007000Y014585D02*
X006440Y014585D01*
X006440Y016365D02*
X007000Y016365D01*
X009000Y016365D02*
X009560Y016365D01*
X009560Y014585D02*
X009000Y014585D01*
X005500Y022320D02*
X005500Y022880D01*
X004500Y022880D02*
X004500Y022320D01*
D13*
X009250Y012550D03*
X009250Y010650D03*
D14*
X007750Y006350D03*
X006750Y006350D03*
X006750Y005350D03*
X007750Y005350D03*
X007750Y004350D03*
X006750Y004350D03*
X006750Y003350D03*
X007750Y003350D03*
X007750Y002350D03*
X006750Y002350D03*
X017750Y009600D03*
X017750Y010600D03*
X029000Y010350D03*
X030000Y010350D03*
X030000Y011350D03*
X029000Y011350D03*
X029000Y012350D03*
X030000Y012350D03*
X030000Y013350D03*
X029000Y013350D03*
X029000Y014350D03*
X030000Y014350D03*
X030000Y018350D03*
X029000Y018350D03*
X029000Y019350D03*
X030000Y019350D03*
X030000Y020350D03*
X029000Y020350D03*
X029000Y021350D03*
X030000Y021350D03*
X030000Y022350D03*
X029000Y022350D03*
X009500Y022600D03*
X008500Y022600D03*
X008500Y021600D03*
X009500Y021600D03*
X009500Y020600D03*
X008500Y020600D03*
X008500Y019600D03*
X009500Y019600D03*
X009500Y018600D03*
X008500Y018600D03*
X005500Y018100D03*
X004500Y018100D03*
X004500Y017100D03*
X005500Y017100D03*
X005500Y019100D03*
X004500Y019100D03*
X029000Y006350D03*
X030000Y006350D03*
X030000Y005350D03*
X029000Y005350D03*
X029000Y004350D03*
X030000Y004350D03*
X030000Y003350D03*
X029000Y003350D03*
X029000Y002350D03*
X030000Y002350D03*
D15*
X004831Y010011D03*
X003846Y010011D03*
X003846Y010838D03*
X003846Y011862D03*
X003846Y012689D03*
X004831Y012689D03*
D16*
X002665Y014007D03*
X002350Y011350D03*
X002665Y008693D03*
D17*
X002219Y002069D03*
X002219Y022541D03*
X033321Y022541D03*
X033321Y002069D03*
M02*
